<?xml version="1.0" encoding="utf-8"?>
<!-- Uploaded to: SVG Repo, www.svgrepo.com, Generator: SVG Repo Mixer Tools -->
<svg width="800px" height="800px" viewBox="0 0 1024 1024" class="icon"  version="1.1" xmlns="http://www.w3.org/2000/svg"><path d="M655.1 877.5H371c-141.3 0-255.9-114.6-255.9-255.9v-19c0-141.3 114.6-255.9 255.9-255.9h284.1c141.3 0 255.9 114.6 255.9 255.9v19c0 141.3-114.6 255.9-255.9 255.9z" fill="#FF92B4" /><path d="M373.2 364.5l-50.5-35.9c-8.1-5.8-17.8-8.9-27.8-8.9H171.2c-11.3 0-19.7 10.8-16.5 21.8 7.1 24.7 30.8 43.9 91.5 106.5M148.1 681H78.7c-7.6 0-13.8-6.2-13.8-13.8v-102c0-7.6 6.2-13.8 13.8-13.8h69.4c7.6 0 13.8 6.2 13.8 13.8v102c0 7.7-6.2 13.8-13.8 13.8z" fill="#FF92B4" /><path d="M148.1 674.9H78.7c-7.6 0-13.8-6.2-13.8-13.8v-102c0-7.6 6.2-13.8 13.8-13.8h69.4c7.6 0 13.8 6.2 13.8 13.8v102c0 7.6-6.2 13.8-13.8 13.8zM448.1 867v57.3c0 7.6-6.2 13.8-13.8 13.8H333.8c-7.6 0-13.8-6.2-13.8-13.8V867c0-7.6 6.2-13.8 13.8-13.8h100.5c7.6 0 13.8 6.2 13.8 13.8zM704.1 867v57.3c0 7.6-6.2 13.8-13.8 13.8H589.9c-7.6 0-13.8-6.2-13.8-13.8V867c0-7.6 6.2-13.8 13.8-13.8h100.5c7.6 0 13.7 6.2 13.7 13.8zM847.3 589.7c-3.2 2-7.5 1-9.4-2.3l-16.7-28.6c0.7-0.4 26.5-15.6 51.7-37.9 27.5-24.3 43.8-47.7 46.7-66.8 0.5-3.3 3.3-5.8 6.7-5.8H953c3.9 0 7.1 3.4 6.7 7.3-2.8 30.6-23.2 62.8-60.8 95.8-21 18.3-41.7 32.1-51.6 38.3z" fill="#FF92B4" /><path d="M256 512.1m-22.3 0a22.3 22.3 0 1 0 44.6 0 22.3 22.3 0 1 0-44.6 0Z" fill="#444444" /><path d="M581.3 418H427.8c-2.9 0-5.3-2.4-5.3-5.3v-42.8c0-2.9 2.4-5.3 5.3-5.3h153.5c2.9 0 5.3 2.4 5.3 5.3v42.8c0.1 2.9-2.3 5.3-5.3 5.3z" fill="#444444" /><path d="M513.13777778 169.81333333m-107.29244445 0a107.29244445 107.29244445 0 1 0 214.58488889 0 107.29244445 107.29244445 0 1 0-214.58488889 0Z" fill="#FFDA00" /></svg>